<svg id="icons" enable-background="new 0 0 64 64" height="512" viewBox="0 0 64 64" width="512" xmlns="http://www.w3.org/2000/svg"><path d="m57.69 27.96h-.01c-.421-2.76-1.29-5.47-2.61-8-1.19-2.29-2.75-4.45-4.68-6.37-.58-.58-1.181-1.13-1.801-1.63-4.8-4-10.699-5.99-16.6-5.979-5.89 0-11.78 1.989-16.57 5.979-.62.5-1.22 1.05-1.8 1.63-1.93 1.92-3.49 4.08-4.68 6.37-1.33 2.53-2.2 5.24-2.62 8-.42 2.65-.42 5.351-.01 8 .42 2.771 1.3 5.49 2.63 8.03 1.189 2.29 2.75 4.44 4.68 6.37.561.57 1.15 1.1 1.75 1.6 4.811 4.01 10.74 6.021 16.67 6.01 5.9 0 11.8-2.01 16.59-6.01.601-.5 1.19-1.029 1.761-1.6 1.93-1.93 3.489-4.08 4.68-6.37 1.32-2.54 2.2-5.26 2.62-8.03.42-2.649.411-5.35 0-8zm-13.7 13.971h3.01c1.101 0 2 .899 2 2v.029c-.02 1.101-.91 1.971-2 1.971h-3.01c0 1.1-.89 2-2 2h-.01-9.94-10.03-.01c-1.109 0-2-.9-2-2h-3.01c-1.09 0-1.98-.87-2-1.971 0-.01 0-.02 0-.029 0-1.101.9-2 2-2h3.01c0-1.101.891-2 2-2-1.109 0-2-.891-2-2h-3.01c-1.09 0-1.98-.87-2-1.971 0-.01 0-.02 0-.029 0-1.101.9-2 2-2h3.01c0-1.101.891-2 2-2-1.109 0-2-.891-2-2h-3.01c-1.09 0-1.98-.87-2-1.971 0-.01 0-.02 0-.029 0-1.101.9-2 2-2h3.01c.01-1.11.891-1.99 2-1.99v-.01c-1.109 0-2-.891-2-2h-3.01c-1.09 0-1.98-.87-2-1.971 0-.01 0-.02 0-.029 0-1.101.9-2 2-2h3.01c.01-1.11.891-1.99 2-1.99l.01-.01h9.98 9.99l.02.009c1.101 0 1.99.89 1.99 1.99h3.01c1.101 0 2 .899 2 2v.029c-.02 1.101-.91 1.971-2 1.971h-3.01c0 1.109-.88 1.989-1.99 2 1.101 0 1.99.899 1.99 2h3.01c1.101 0 2 .899 2 2v.029c-.02 1.101-.91 1.971-2 1.971h-3.01c0 1.109-.88 1.989-1.99 2 1.101 0 1.99.899 1.99 2h3.01c1.101 0 2 .899 2 2v.029c-.02 1.101-.91 1.971-2 1.971h-3.01c0 1.109-.88 1.989-1.99 2 1.101.001 1.99.9 1.99 2.001z" fill="#545c66"/><g fill="#656d78"><path d="m48.604 12.955h-33.204c-.553 0-1-.447-1-1s.447-1 1-1h33.204c.553 0 1 .447 1 1s-.447 1-1 1z"/><path d="m14.994 20.955h-6.058c-.553 0-1-.447-1-1s.447-1 1-1h6.059c.553 0 1 .447 1 1s-.448 1-1.001 1z"/><path d="m55.069 20.955h-6.073c-.553 0-1-.447-1-1s.447-1 1-1h6.073c.553 0 1 .447 1 1s-.447 1-1 1z"/><path d="m14.995 28.955h-8.678c-.553 0-1-.447-1-1s.447-1 1-1h8.678c.553 0 1 .447 1 1s-.447 1-1 1z"/><path d="m57.688 28.955h-8.69c-.553 0-1-.447-1-1s.447-1 1-1h8.69c.553 0 1 .447 1 1s-.448 1-1 1z"/><path d="m14.995 36.955h-8.686c-.553 0-1-.447-1-1s.447-1 1-1h8.687c.553 0 1 .447 1 1s-.448 1-1.001 1z"/><path d="m57.696 36.955h-8.699c-.553 0-1-.447-1-1s.447-1 1-1h8.699c.553 0 1 .447 1 1s-.447 1-1 1z"/><path d="m14.995 44.955h-5.992c-.553 0-1-.447-1-1s.447-1 1-1h5.992c.553 0 1 .447 1 1s-.447 1-1 1z"/><path d="m55.002 44.955h-6.005c-.553 0-1-.447-1-1s.447-1 1-1h6.005c.553 0 1 .447 1 1s-.447 1-1 1z"/><path d="m48.634 52.955h-33.263c-.553 0-1-.447-1-1s.447-1 1-1h33.263c.553 0 1 .447 1 1s-.447 1-1 1z"/><path d="m32.036 58.975c-.553 0-1-.447-1-1v-10.047c0-.553.447-1 1-1s1 .447 1 1v10.047c0 .552-.447 1-1 1z"/><path d="m31.995 16.946c-.553 0-1-.447-1-1v-10c0-.553.447-1 1-1s1 .447 1 1v10c0 .553-.447 1-1 1z"/></g><path d="m12.49 59.99 3.7-3.7c.87.57 1.77 1.09 2.689 1.55v.011l-4.27 4.26c-1.17 1.17-3.07 1.17-4.24 0l-8.479-8.48c-1.17-1.17-1.17-3.069 0-4.239l4.26-4.261c.47.92.99 1.811 1.56 2.681l-.01.008-3.69 3.69z" fill="#545c66"/><path d="m45.16 6.12 4.23-4.229c1.17-1.171 3.069-1.171 4.239 0l8.48 8.479c1.17 1.17 1.17 3.07 0 4.25l-4.24 4.23h-.01c-.46-.92-.97-1.811-1.55-2.681l.01-.01 3.67-3.67-8.48-8.48-3.67 3.671c-.868-.57-1.769-1.09-2.689-1.55z" fill="#545c66"/><path d="m20 41.931v4h-3.01c-1.09 0-1.98-.87-2-1.971 0-.01 0-.02 0-.029 0-1.101.9-2 2-2z" fill="#e6e9ed"/><path d="m49 43.931v.029c-.02 1.101-.91 1.971-2 1.971h-3.01v-4h3.01c1.101 0 2 .899 2 2z" fill="#e6e9ed"/><path d="m25.98 39.931h6.02 5.98 4 .01.01c1.101 0 1.99.899 1.99 2v4c0 1.1-.89 2-2 2h-.01-9.94-10.03-.01c-1.109 0-2-.9-2-2v-4c0-1.101.891-2 2-2h.01z" fill="#965353"/><path d="m41.99 45.929h-.01-9.94-10.03-.01c-1.109 0-2-.9-2-2v2.002c0 1.1.891 2 2 2h.01 10.03 9.94.01c1.11 0 2-.9 2-2v-2.002c0 1.099-.889 2-2 2z" fill="#844747"/><path d="m37.979 42.925c-.553 0-1-.447-1-1v-2.996c0-.553.447-1 1-1s1 .447 1 1v2.996c0 .553-.447 1-1 1z" fill="#844747"/><path d="m31.996 44.929c-.553 0-1-.447-1-1v-5c0-.553.447-1 1-1s1 .447 1 1v5c0 .552-.447 1-1 1z" fill="#844747"/><path d="m25.982 41.926c-.553 0-1-.447-1-1v-1.999c0-.553.447-1 1-1s1 .447 1 1v1.999c0 .553-.447 1-1 1z" fill="#844747"/><path d="m11.5 11.47c9.101-9.1 22.76-10.89 33.65-5.34.92.46 1.82.98 2.689 1.551 1.65 1.079 3.221 2.34 4.67 3.789 1.461 1.461 2.73 3.03 3.801 4.7.58.87 1.09 1.761 1.55 2.681 5.53 10.88 3.75 24.529-5.351 33.63-9.1 9.109-22.75 10.89-33.63 5.359-.92-.46-1.819-.979-2.689-1.55-1.66-1.08-3.23-2.35-4.69-3.81-1.45-1.45-2.72-3.021-3.79-4.67-.569-.87-1.09-1.761-1.56-2.681-5.549-10.889-3.759-24.549 5.35-33.659zm2.12 38.89c.561.57 1.15 1.1 1.75 1.6 4.811 4.01 10.74 6.021 16.67 6.01 5.9 0 11.8-2.01 16.59-6.01.601-.5 1.19-1.029 1.761-1.6 1.93-1.93 3.489-4.08 4.68-6.37 1.32-2.54 2.2-5.26 2.62-8.03.42-2.649.41-5.35 0-8h-.01c-.421-2.76-1.29-5.47-2.61-8-1.19-2.29-2.75-4.45-4.68-6.37-.58-.58-1.181-1.13-1.801-1.63-4.8-4-10.699-5.99-16.6-5.979-5.89 0-11.78 1.989-16.57 5.979-.62.5-1.22 1.05-1.8 1.63-1.93 1.92-3.49 4.08-4.68 6.37-1.33 2.53-2.2 5.24-2.62 8-.42 2.65-.42 5.351-.01 8 .42 2.771 1.3 5.49 2.63 8.03 1.19 2.29 2.75 4.441 4.68 6.37z" fill="#e6e9ed"/><path d="m49 35.931v.029c-.02 1.101-.91 1.971-2 1.971h-3.01v-4h3.01c1.101 0 2 .899 2 2z" fill="#e6e9ed"/><path d="m20 33.931v4h-3.01c-1.09 0-1.98-.87-2-1.971 0-.01 0-.02 0-.029 0-1.101.9-2 2-2z" fill="#e6e9ed"/><path d="m26 31.931h7 5 3.98.01.01c1.101 0 1.99.899 1.99 2v4c0 1.109-.88 1.989-1.99 2h-.01-.01-4-5.98-6.02-3.97-.01c-1.109 0-2-.891-2-2v-4c0-1.101.891-2 2-2h.01z" fill="#965353"/><path d="m41.99 37.93h-.01-9.94-10.03-.01c-1.109 0-2-.9-2-2v2.002c0 1.1.891 2 2 2h.01 10.03 9.94.01c1.11 0 2-.9 2-2v-2.002c0 1.099-.889 2-2 2z" fill="#844747"/><path d="m25.996 36.927c-.553 0-1-.447-1-1v-4.996c0-.553.447-1 1-1s1 .447 1 1v4.996c0 .552-.447 1-1 1z" fill="#844747"/><path d="m37.999 35.929c-.553 0-1-.447-1-1v-3.998c0-.553.447-1 1-1s1 .447 1 1v3.998c0 .552-.447 1-1 1z" fill="#844747"/><path d="m32.998 33.926c-.553 0-1-.447-1-1v-1.995c0-.553.447-1 1-1s1 .447 1 1v1.995c0 .553-.447 1-1 1z" fill="#844747"/><path d="m49 27.931v.029c-.02 1.101-.91 1.971-2 1.971h-3.01v-4h3.01c1.101 0 2 .899 2 2z" fill="#e6e9ed"/><path d="m20 25.931v.01 3.99h-3.01c-1.09 0-1.98-.87-2-1.971 0-.01 0-.02 0-.029 0-1.101.9-2 2-2z" fill="#e6e9ed"/><path d="m33 31.931h-7-3.99-.01c-1.109 0-2-.891-2-2v-3.99-.01c.01-1.11.891-1.99 2-1.99v-.01h.01 3.971 6.019 5.98 4 .01.01c1.101 0 1.99.899 1.99 2v4c0 1.109-.88 1.989-1.99 2h-.01-.01-3.98z" fill="#965353"/><path d="m41.99 29.931h-.01-9.94-10.03-.01c-1.109 0-2-.9-2-2v2.002c0 1.1.891 2 2 2h.01 10.03 9.94.01c1.11 0 2-.9 2-2v-2.002c0 1.099-.889 2-2 2z" fill="#844747"/><path d="m37.979 24.926c-.553 0-1-.447-1-1v-.994c0-.553.447-1 1-1s1 .447 1 1v.994c0 .553-.447 1-1 1z" fill="#844747"/><path d="m31.996 28.932c-.553 0-1-.447-1-1v-5c0-.553.447-1 1-1s1 .447 1 1v5c0 .552-.447 1-1 1z" fill="#844747"/><path d="m25.982 26.93c-.553 0-1-.447-1-1v-3c0-.553.447-1 1-1s1 .447 1 1v3c0 .552-.447 1-1 1z" fill="#844747"/><path d="m49 19.931v.029c-.02 1.101-.91 1.971-2 1.971h-3.01v-4h3.01c1.101 0 2 .899 2 2z" fill="#e6e9ed"/><path d="m20 17.931v.01 3.99h-3.01c-1.09 0-1.98-.87-2-1.971 0-.01 0-.02 0-.029 0-1.101.9-2 2-2z" fill="#e6e9ed"/><path d="m22.01 15.931h9.98 9.99l.02.009c1.101 0 1.99.89 1.99 1.99v4c0 1.109-.88 1.989-1.99 2h-.01-.01-4-5.98-6.02-3.97-.01c-1.109 0-2-.891-2-2v-3.99-.01c.01-1.11.891-1.99 2-1.99z" fill="#965353"/><path d="m41.99 21.932h-.01-9.94-10.03-.01c-1.109 0-2-.9-2-2v2.002c0 1.1.891 2 2 2h.01 10.03 9.94.01c1.11 0 2-.9 2-2v-2.002c0 1.099-.889 2-2 2z" fill="#844747"/><path d="m26.996 18.928v-2.997h-2v2.997c0 .553.447 1 1 1s1-.448 1-1z" fill="#844747"/><path d="m36.999 15.931v4.001c0 .553.447 1 1 1s1-.447 1-1v-4.001z" fill="#844747"/><path d="m31.99 15.931h-.993v.997c0 .553.447 1 1 1s1-.447 1-1v-.997z" fill="#844747"/></svg>